<svg xmlns="http://www.w3.org/2000/svg" viewBox="0 0 1200 630" width="1200" height="630">
  <defs>
    <radialGradient id="bg" cx="30%" cy="40%" r="70%">
      <stop offset="0%" stop-color="#FDF0F0"/>
      <stop offset="60%" stop-color="#F0EDF8"/>
      <stop offset="100%" stop-color="#EBF0F8"/>
    </radialGradient>
    <radialGradient id="glow1" cx="50%" cy="50%" r="50%">
      <stop offset="0%" stop-color="#E8A4A4" stop-opacity="0.25"/>
      <stop offset="100%" stop-color="#E8A4A4" stop-opacity="0"/>
    </radialGradient>
    <radialGradient id="glow2" cx="50%" cy="50%" r="50%">
      <stop offset="0%" stop-color="#9B7B9B" stop-opacity="0.18"/>
      <stop offset="100%" stop-color="#9B7B9B" stop-opacity="0"/>
    </radialGradient>
  </defs>
  <rect width="1200" height="630" fill="url(#bg)"/>
  <ellipse cx="900" cy="200" rx="320" ry="320" fill="url(#glow1)"/>
  <ellipse cx="200" cy="480" rx="260" ry="260" fill="url(#glow2)"/>
  <circle cx="880" cy="315" r="220" fill="none" stroke="#E8A4A4" stroke-width="1" opacity="0.35"/>
  <circle cx="880" cy="315" r="170" fill="none" stroke="#9B7B9B" stroke-width="0.8" stroke-dasharray="6 5" opacity="0.3"/>
  <circle cx="880" cy="315" r="115" fill="none" stroke="#C9A96E" stroke-width="0.8" opacity="0.3"/>
  <circle cx="880" cy="315" r="75" fill="white" opacity="0.7"/>
  <text x="880" y="340" text-anchor="middle" font-family="Georgia,serif" font-size="64" fill="#B85C6E" opacity="0.65">☽</text>
  <circle cx="880" cy="95" r="6" fill="#C9A96E" opacity="0.7"/>
  <circle cx="1040" cy="210" r="5" fill="#C9A96E" opacity="0.6"/>
  <circle cx="990" cy="490" r="4" fill="#E8A4A4" opacity="0.7"/>
  <circle cx="730" cy="420" r="5" fill="#C9A96E" opacity="0.55"/>
  <circle cx="720" cy="190" r="4" fill="#9B7B9B" opacity="0.5"/>
  <circle cx="150" cy="80" r="2.5" fill="#C9A96E" opacity="0.6"/>
  <circle cx="320" cy="50" r="1.8" fill="#9B7B9B" opacity="0.5"/>
  <circle cx="500" cy="90" r="2" fill="#E8A4A4" opacity="0.55"/>
  <circle cx="100" cy="200" r="1.5" fill="#C9A96E" opacity="0.45"/>
  <circle cx="600" cy="40" r="2.2" fill="#B85C6E" opacity="0.4"/>
  <text x="80" y="155" font-family="Georgia,serif" font-size="17" fill="#D4797A" letter-spacing="5">NLP × 占星術コーチング</text>
  <text x="80" y="230" font-family="Georgia,serif" font-size="68" font-weight="400" fill="#B85C6E">NLPアストロ</text>
  <text x="80" y="310" font-family="Georgia,serif" font-size="68" font-weight="400" fill="#2D1F2D">コーチング</text>
  <line x1="80" y1="340" x2="380" y2="340" stroke="#C9A96E" stroke-width="1" opacity="0.6"/>
  <text x="80" y="378" font-family="sans-serif" font-size="16" fill="#7A6070" letter-spacing="1">NLPトレーナー × 占星術師による唯一無二のアプローチ</text>
  <text x="80" y="410" font-family="sans-serif" font-size="16" fill="#7A6070" letter-spacing="1">星が照らす、本来の自分へ。</text>
  <line x1="80" y1="438" x2="280" y2="438" stroke="#E8A4A4" stroke-width="0.8" opacity="0.5"/>
  <rect x="80" y="460" width="230" height="42" rx="21" fill="#B85C6E" opacity="0.9"/>
  <text x="195" y="487" text-anchor="middle" font-family="sans-serif" font-size="15" fill="white" letter-spacing="3">30分 無料相談受付中</text>
  <text x="80" y="580" font-family="Georgia,serif" font-size="16" fill="#B09AA8" letter-spacing="3">アストロコーチ 原田 光</text>
</svg>
